<?xml version="1.0" encoding="UTF-8" standalone="no"?>
<svg
   width="13.021545"
   height="15.668978"
   viewBox="0 0 13.021545 15.668978"
   fill="none"
   version="1.1"
   id="svg11"
   xmlns="http://www.w3.org/2000/svg"
   xmlns:svg="http://www.w3.org/2000/svg">
  <defs
     id="defs15" />
  <path
     style="fill:#2b2200;stroke-width:0.0277584"
     d="m 1.5478924,14.683468 c -0.8771955,-0.918935 0,0 -0.8771955,-0.918935 -0.375076,-0.392922 -0.5322628,-1.003186 -0.5893624,-1.39385 -0.0724453,-0.495652 -0.0974321,-0.923126 -0.0711859,-1.21785 0.0480951,-0.540072 0.0838257,-0.803442 0.107072,-0.789224 0.010016,0.0061 0.018758,-0.03584 0.019427,-0.09325 6.69e-4,-0.05742 0.016117,-0.152976 0.034329,-0.21236 C 0.1891882,9.998611 0.2417588,9.8169001 0.2877997,9.6541907 0.7736168,7.9373179 2.1295258,6.1233731 3.802722,4.9519029 3.9689117,4.8355468 4.1200257,4.7318658 4.1385309,4.7215008 c 0.02449,-0.013717 0.011702,-0.06235 -0.046992,-0.1787104 -0.04435,-0.087926 -0.089157,-0.2166788 -0.09957,-0.2861188 -0.024637,-0.1642904 0.047579,-0.460462 0.1426758,-0.58514 l 0.0715,-0.093742 L 3.6804386,2.7944534 C 3.0210981,1.8119934 2.998583,1.7692238 2.9977347,1.4975863 2.9969103,1.2332026 3.0808718,1.0385599 3.2805161,0.84203974 3.6853489,0.44354233 4.4633691,0.32645175 5.0113942,0.58154555 5.0803978,0.61366538 5.0973906,0.60605845 5.2750993,0.46349536 5.7225103,0.10456953 6.359236,-0.0758938 6.8039934,0.03017002 7.2123778,0.12756017 7.503481,0.2700075 7.7649581,0.50040518 l 0.1347532,0.11873637 0.1289518,-0.050178 C 8.3196307,0.45574105 8.4267907,0.4382513 8.7405417,0.45277701 c 0.3643089,0.016866 0.5480959,0.0736816 0.8173309,0.25266881 0.215328,0.14314963 0.372349,0.34776148 0.416179,0.54231468 0.04517,0.2005349 0.0346,0.4441003 -0.025,0.5753794 -0.05028,0.1107677 -0.541976,0.8625329 -0.9528027,1.4567705 -0.1024716,0.1482197 -0.1863122,0.2778455 -0.1863122,0.2880573 0,0.010212 0.039325,0.098439 0.08738,0.1960613 0.1230438,0.2499369 0.1267915,0.5034607 0.011164,0.7552548 -0.07034,0.1531663 -0.075384,0.17962 -0.038248,0.2004044 0.092256,0.051629 0.6064099,0.4369209 0.8714509,0.6530396 1.3697734,1.116934 2.4089114,2.5887965 2.9307784,4.1512318 0.123429,0.3695361 0.23253,0.7906594 0.2614,1.0089934 0.006,0.0458 0.03152,0.214318 0.05658,0.374481 0.05493,0.350985 0.0356,0.932921 -0.04609,1.388178 -0.176873,0.985609 -0.714096,1.989096 -1.566268,2.452352 -2.8789115,1.565025 -8.9530001,0.854438 -9.8301957,-0.0645 z m 5.2050877,0.237049 c 0.514239,-0.02331 1.2519634,-0.128501 1.2519634,-0.178521 0,-0.01109 -0.075301,-0.06815 -0.1673369,-0.126784 -0.092035,-0.05863 -0.1638602,-0.109814 -0.159611,-0.113736 0.00425,-0.0039 0.098684,-0.0211 0.2098549,-0.03819 0.7412309,-0.113887 1.5976081,-0.579232 2.0740611,-1.127019 0.5889034,-0.677073 0.8221724,-1.290017 0.8205394,-2.156071 -9.63e-4,-0.532462 -0.07833,-1.057218 -0.239039,-1.6222822 -0.06791,-0.2387954 -0.123486,-0.4802948 -0.123486,-0.5366649 0,-0.2164911 0.275105,-0.3215747 0.431757,-0.1649221 0.170156,0.1701549 0.53197,1.3752522 0.596193,1.9857392 0.09791,0.930684 -0.03821,1.718153 -0.440157,2.546427 -0.02666,0.05495 0.355066,-0.227278 0.518374,-0.383252 0.321079,-0.306659 0.536688,-0.64478 0.675664,-1.059588 0.05771,-0.172257 0.064,-0.241154 0.06309,-0.690986 -0.0015,-0.709242 -0.09663,-1.157125 -0.421787,-1.9847231 C 11.593798,8.6355294 11.301131,8.127495 10.792391,7.4461146 10.538033,7.1054413 10.343527,6.8868926 9.9204026,6.4663439 9.6208696,6.1686348 9.2516016,5.8317705 9.0998076,5.7177567 8.9480127,5.6037431 8.8071216,5.4942553 8.7867158,5.4744506 8.7663107,5.454646 8.7038543,5.4046786 8.6479241,5.3634121 8.5919939,5.3221456 8.5052014,5.2536326 8.4550519,5.2111608 8.3686313,5.1379709 8.3494308,5.1339396 8.0872528,5.1339396 c -0.15214,0 -0.2766182,0.00793 -0.2766182,0.017622 0,0.00969 0.080576,0.1564651 0.1790593,0.3261615 C 8.3526747,6.1031793 8.690928,6.8764162 8.9686008,7.7154729 9.1417886,8.2388046 9.1709556,8.413723 9.1059796,8.5393712 9.0503679,8.6469039 8.8890131,8.7264274 8.7733614,8.7032968 8.6291796,8.6744606 8.5656417,8.5861924 8.4731401,8.2862229 8.2440199,7.5432188 7.8805939,6.6441069 7.5664282,6.043028 7.4211095,5.7649965 7.3567891,5.6776286 7.3825067,5.7932022 7.4187237,5.9559606 7.565028,6.9880132 7.5787746,7.1777056 7.6265157,7.8364977 7.2447686,8.327306 6.64915,8.3729142 6.1579419,8.4105277 5.7543093,8.1395972 5.6074452,7.6736906 5.5254765,7.4136559 5.5440933,7.2050071 5.7151718,6.4663439 5.8268142,5.9843064 5.9785787,5.2395576 5.9785787,5.1737349 c 0,-0.071373 -0.039837,-0.025423 -0.1871584,0.2158756 C 5.6416128,5.6349825 5.6022559,5.7053373 5.3598998,6.1610013 5.0184737,6.8029308 4.6203783,7.8184572 4.4808794,8.4033494 4.4348918,8.5961663 4.3238664,8.6870177 4.1342209,8.6870177 c -0.1129543,0 -0.1440543,-0.012931 -0.2157904,-0.089725 C 3.8396176,8.5129232 3.835503,8.497597 3.8494949,8.3405273 3.8620934,8.1991021 4.1176441,7.348376 4.1998543,7.1741837 4.214265,7.1436494 4.2780686,6.9937539 4.3416399,6.8410826 4.5113759,6.4334485 4.8155463,5.8260181 5.0223563,5.4816874 5.1220484,5.3157037 5.1984721,5.166435 5.1921862,5.1499795 5.1845773,5.1300604 5.0890997,5.1246994 4.9065265,5.1339396 L 4.6322952,5.1478188 4.4437986,5.2866109 C 4.3401254,5.3629466 4.1652473,5.4906329 4.0551807,5.5703584 3.9451139,5.6500839 3.8425681,5.7252265 3.827301,5.7373419 3.8120339,5.7494574 3.765063,5.7860569 3.7229213,5.8186739 3.4354678,6.0411576 2.7229966,6.7278632 2.5068902,6.9907287 2.4392254,7.0730345 2.363639,7.1604735 2.3389203,7.1850378 2.2809077,7.2426889 2.1122437,7.4831776 1.8536778,7.8769184 1.2701728,8.7654728 1.0155139,9.3788173 0.7580709,10.515682 c -0.084903,0.37493 -0.1003303,1.237011 -0.025651,1.43343 0.015792,0.04154 0.041298,0.164598 0.056679,0.273468 0.034966,0.247495 0.1082298,0.45763 0.2770923,0.794752 0.2879387,0.574847 0.7785983,1.050157 1.3799017,1.336732 0.7168055,0.341623 1.2189367,0.45563 2.4221496,0.549939 0.6117307,0.04795 1.0973179,0.05221 1.8847384,0.01651 z M 0.9543044,9.6169244 c 0,-0.00762 -0.00624,-0.013879 -0.013879,-0.013879 -0.00764,0 -0.013879,0.00622 -0.013879,0.013879 0,0.00762 0.00624,0.013879 0.013879,0.013879 0.00764,0 0.013879,-0.00622 0.013879,-0.013879 z M 6.7642275,7.6417262 C 6.811403,7.617331 6.8653323,7.5521709 6.8963127,7.4821347 6.9567286,7.3455545 6.9466456,7.1948603 6.8255612,6.4247063 6.8039582,6.287302 6.758856,5.9750198 6.7253338,5.7307457 6.6918117,5.4864716 6.6550284,5.2760447 6.6435931,5.2631301 6.6321581,5.2502162 6.6144781,5.293935 6.604304,5.3602845 6.5869314,5.4735853 6.3965733,6.4034916 6.3409513,6.6467736 c -0.048749,0.2132183 -0.0822,0.3619487 -0.1144699,0.5089606 -0.01788,0.081455 -0.025821,0.1979698 -0.017646,0.2589201 0.034334,0.2559746 0.2941119,0.3621853 0.5553921,0.2270719 z M 8.1724026,4.4256299 C 8.4007639,4.3075398 8.3840347,3.9951948 8.142663,3.8703768 8.0220955,3.8080289 4.9325276,3.808979 4.8118164,3.8714011 c -0.095495,0.049383 -0.165642,0.1711276 -0.165642,0.2874851 0,0.090674 0.1119311,0.243933 0.2059242,0.2819573 0.03178,0.012856 0.7735276,0.024167 1.648329,0.025134 1.3697968,0.00151 1.6018494,-0.00408 1.671975,-0.040348 z M 5.4701016,3.086756 C 5.4616866,3.0600385 5.4104746,2.9320028 5.3562973,2.8022322 5.2344357,2.5103362 5.2291546,2.3896714 5.3331953,2.2743907 5.3926406,2.2085234 5.440241,2.186301 5.5483232,2.173958 5.7921495,2.1461127 5.8735197,2.2522033 6.0360153,2.8098088 l 0.095235,0.3267985 0.3721211,-0.00758 0.3721211,-0.00758 0.1017798,-0.3651446 c 0.1152003,-0.4132916 0.1598031,-0.4974062 0.2933408,-0.553202 0.1528604,-0.063869 0.2830765,-0.050709 0.3713108,0.037525 0.127002,0.127002 0.1305076,0.2421026 0.017355,0.5698053 -0.054158,0.1568484 -0.09847,0.2935703 -0.09847,0.3038268 0,0.010256 0.1549239,0.018845 0.3442755,0.019085 l 0.3442752,4.351e-4 0.068059,-0.089441 C 8.3548506,2.995151 8.470563,2.8299895 8.5745569,2.6773181 8.6785505,2.5246468 8.7853857,2.3685057 8.8119683,2.3303378 8.9864962,2.0797448 9.2449176,1.6636449 9.2731316,1.587787 9.3225816,1.4548386 9.2748026,1.345524 9.1302086,1.2607855 8.8226905,1.0805682 8.5115408,1.0681518 8.1298564,1.2208667 7.8950551,1.3148126 7.7228424,1.332364 7.6123309,1.2736116 7.5763602,1.2544883 7.4685672,1.1725018 7.3727913,1.0914195 7.1419316,0.89597794 6.9814275,0.80484984 6.7598251,0.74340158 6.5346238,0.68095512 6.3133555,0.6785987 6.1181506,0.73656857 5.9385924,0.78989166 5.8143885,0.86619373 5.5708602,1.072785 5.3831325,1.2320395 5.2478765,1.2998442 5.1135091,1.3020579 5.0728341,1.3027269 4.9229386,1.2583564 4.7804081,1.2034547 4.539654,1.1107177 4.5050628,1.1045861 4.293022,1.1170596 c -0.2652208,0.015602 -0.407018,0.076115 -0.5004191,0.213555 -0.079936,0.1176267 -0.079159,0.2383513 0.00252,0.3918432 0.086059,0.1617136 0.5073687,0.8032624 0.7501114,1.1422297 l 0.193817,0.2706446 H 5.112225 c 0.3427266,0 0.3719253,-0.00397 0.3578732,-0.048577 z"
     id="path342" />
</svg>
