<?xml version="1.0" encoding="UTF-8" standalone="no"?>
<svg
   width="10.994631"
   height="15.601307"
   viewBox="0 0 10.994631 15.601307"
   fill="none"
   version="1.1"
   id="svg11"
   sodipodi:docname="bolt.svg"
   inkscape:export-filename="..\RiderProjects\2023-p3a-web-gamebook-kelbasa-matejka\Game\wwwroot\Assets\heart.svg"
   inkscape:export-xdpi="96"
   inkscape:export-ydpi="96"
   inkscape:version="1.2.2 (732a01da63, 2022-12-09)"
   xmlns:inkscape="http://www.inkscape.org/namespaces/inkscape"
   xmlns:sodipodi="http://sodipodi.sourceforge.net/DTD/sodipodi-0.dtd"
   xmlns="http://www.w3.org/2000/svg"
   xmlns:svg="http://www.w3.org/2000/svg">
  <defs
     id="defs15" />
  <sodipodi:namedview
     id="namedview13"
     pagecolor="#505050"
     bordercolor="#eeeeee"
     borderopacity="1"
     inkscape:showpageshadow="0"
     inkscape:pageopacity="0"
     inkscape:pagecheckerboard="0"
     inkscape:deskcolor="#505050"
     showgrid="false"
     inkscape:zoom="64.225389"
     inkscape:cx="5.4962688"
     inkscape:cy="7.8006535"
     inkscape:window-width="2560"
     inkscape:window-height="1369"
     inkscape:window-x="1912"
     inkscape:window-y="-8"
     inkscape:window-maximized="1"
     inkscape:current-layer="Vector" />
  <g
     id="Vector"
     transform="translate(-20.502685,-28.199348)">
    <path
       style="fill:#f8d51a;fill-opacity:1;stroke-width:0.0489587"
       d="m 22.095175,43.749533 c -0.425083,-0.158499 -0.779828,-0.533616 -0.847928,-0.896621 -0.08509,-0.453562 -0.02081,-0.643672 0.706578,-2.089889 0.380885,-0.757281 0.86904,-1.716698 1.08479,-2.132038 0.215749,-0.41534 0.392272,-0.78514 0.392272,-0.821779 0,-0.05424 -0.184224,-0.06522 -0.991415,-0.05908 -1.097009,0.0083 -1.195859,-0.01108 -1.524165,-0.299329 -0.359688,-0.31581 -0.502446,-0.817409 -0.355433,-1.248867 0.105789,-0.310473 0.266225,-0.510651 0.631899,-0.788427 0.347178,-0.263726 0.57625,-0.464828 2.390067,-2.098239 0.717633,-0.646256 1.674046,-1.505482 2.125364,-1.909391 0.451317,-0.40391 1.31898,-1.181029 1.928141,-1.726932 1.479211,-1.325603 1.713549,-1.478923 2.261449,-1.479592 0.403682,-4.95e-4 0.719598,0.128787 1.00006,0.40925 0.316874,0.316873 0.442001,0.645389 0.401337,1.053694 -0.02884,0.289545 -0.378732,1.01491 -1.753502,3.635167 -0.319805,0.609535 -0.581464,1.132782 -0.581464,1.16277 0,0.03791 0.257338,0.05485 0.844538,0.0556 0.711133,8.74e-4 0.875473,0.01517 1.040373,0.09026 0.464642,0.211614 0.750709,0.78683 0.615591,1.237812 -0.0956,0.319101 -0.285701,0.563903 -0.635394,0.818249 -0.177635,0.1292 -0.92989,0.794954 -1.671679,1.479452 -0.741788,0.684498 -1.446779,1.330334 -1.566647,1.435193 -0.119868,0.104859 -0.383177,0.347397 -0.585132,0.538973 -0.201955,0.191575 -0.631568,0.590173 -0.954696,0.88577 -0.323127,0.295598 -0.730709,0.672233 -0.905736,0.836965 -1.326416,1.248398 -1.874942,1.731902 -2.074293,1.828406 -0.285484,0.1382 -0.725836,0.175516 -0.974975,0.08262 z m 5.117774,-5.946919 c 1.043434,-0.951057 1.897182,-1.732898 1.89722,-1.737427 3.8e-5,-0.0045 -0.334693,-0.001 -0.743844,0.0077 -0.409152,0.0088 -0.817236,0.0022 -0.906852,-0.01465 -0.338827,-0.06356 -0.710857,-0.577667 -0.626306,-0.865483 0.03404,-0.115865 0.773982,-1.605421 1.090723,-2.195697 0.09392,-0.175028 0.424116,-0.813939 0.73377,-1.419803 0.309653,-0.605864 0.587432,-1.134619 0.617285,-1.17501 0.05249,-0.07101 -0.331894,0.270276 -0.564676,0.501373 -0.06283,0.06238 -0.296316,0.263735 -0.518861,0.447467 -0.222544,0.183732 -0.431842,0.370543 -0.465107,0.415136 -0.03327,0.04459 -0.181318,0.180045 -0.329005,0.301007 -0.147687,0.12096 -0.322418,0.263991 -0.38829,0.317846 -0.192926,0.157728 -1.214334,1.058124 -1.702842,1.501097 -0.777488,0.705016 -1.885138,1.719731 -2.167268,1.985428 l -0.271034,0.255248 1.008193,0.0017 c 0.956198,0.0017 1.019188,0.0076 1.221387,0.114525 0.269803,0.142675 0.457045,0.463149 0.423518,0.724874 -0.02515,0.196339 -0.452443,1.124788 -1.28187,2.785333 -0.302624,0.605865 -0.566988,1.155226 -0.587476,1.220804 -0.02488,0.07963 0.245282,-0.140075 0.813466,-0.661552 0.467895,-0.429432 1.704436,-1.558921 2.747869,-2.509977 z"
       id="path1245" />
  </g>
</svg>
