<?xml version="1.0" encoding="UTF-8" standalone="no"?>
<svg
   width="15.701883"
   height="15.601315"
   viewBox="0 0 15.701883 15.601315"
   fill="none"
   version="1.1"
   id="svg11"
   sodipodi:docname="card.svg"
   inkscape:export-filename="..\RiderProjects\2023-p3a-web-gamebook-kelbasa-matejka\Game\wwwroot\Assets\card.svg"
   inkscape:export-xdpi="96"
   inkscape:export-ydpi="96"
   xmlns:inkscape="http://www.inkscape.org/namespaces/inkscape"
   xmlns:sodipodi="http://sodipodi.sourceforge.net/DTD/sodipodi-0.dtd"
   xmlns="http://www.w3.org/2000/svg"
   xmlns:svg="http://www.w3.org/2000/svg">
  <defs
     id="defs15" />
  <sodipodi:namedview
     id="namedview13"
     pagecolor="#505050"
     bordercolor="#eeeeee"
     borderopacity="1"
     inkscape:showpageshadow="0"
     inkscape:pageopacity="0"
     inkscape:pagecheckerboard="0"
     inkscape:deskcolor="#505050"
     showgrid="false" />
  <g
     id="Vector"
     transform="translate(-18.149058,-28.199345)">
    <path
       style="fill:#ff004d;fill-opacity:1;stroke-width:0.0530419"
       d="m 25.649961,43.685863 c -0.154617,-0.132778 -1.496051,-1.512045 -4.165119,-4.282594 -1.110392,-1.152611 -2.098627,-2.226766 -2.274708,-2.472477 -0.384425,-0.536445 -0.780261,-1.397619 -0.916582,-1.994105 -0.219506,-0.960462 -0.187365,-2.082002 0.08582,-2.994831 0.51564,-1.722953 1.704244,-2.973972 3.318734,-3.493004 0.82544,-0.309621 1.591748,-0.334183 2.498559,-0.0563 0.439441,0.127171 1.209439,0.514354 1.5185,0.763557 0.13559,0.109329 0.257081,0.19878 0.26998,0.19878 0.0129,0 0.207194,-0.131154 0.431765,-0.291455 0.813859,-0.580934 1.634231,-0.81731 2.704048,-0.779124 1.322245,0.04719 2.307114,0.495408 3.2405,1.474739 1.001344,1.050635 1.487894,2.284595 1.489475,3.777521 7.92e-4,0.749032 -0.05759,1.151878 -0.258058,1.780607 -0.347148,1.088768 -0.792727,1.749369 -2.040794,3.02561 -0.496566,0.507775 -1.485665,1.523182 -2.197997,2.25646 -3.252131,3.347761 -3.097845,3.203348 -3.418384,3.199641 -0.08592,-9.94e-4 -0.214507,-0.05186 -0.285741,-0.113027 z m 5.900383,-7.861103 c 0.581523,-0.769686 0.828139,-2.091466 0.590995,-3.167531 -0.129608,-0.588108 -0.48695,-1.232605 -0.925601,-1.669401 -1.026486,-1.022145 -2.408282,-1.245197 -3.644227,-0.588256 -0.342925,0.182274 -0.53095,0.332662 -0.883613,0.706736 -0.407972,0.432742 -0.465696,0.475191 -0.646188,0.475191 -0.246073,0 -0.468433,-0.141993 -0.698166,-0.445829 -0.847322,-1.120634 -2.486591,-1.449457 -3.799389,-0.762122 -0.725808,0.380008 -1.426412,1.274426 -1.665061,2.125681 -0.11953,0.42636 -0.160684,1.218193 -0.08656,1.66547 0.07659,0.462164 0.396356,1.035986 0.639369,1.434366 1.979206,2.228251 3.365741,3.764349 5.586442,6.080535 0,0 3.680602,-3.447482 5.531998,-5.85484 z"
       id="path1247" />
  </g>
</svg>
