<?xml version="1.0" encoding="UTF-8" standalone="no"?>
<svg
   width="13.751099"
   height="15.601317"
   viewBox="0 0 13.751098 15.601318"
   fill="none"
   version="1.1"
   id="svg11"
   sodipodi:docname="card.svg"
   inkscape:export-filename="..\RiderProjects\2023-p3a-web-gamebook-kelbasa-matejka\Game\wwwroot\Assets\bolt.svg"
   inkscape:export-xdpi="96"
   inkscape:export-ydpi="96"
   xmlns:inkscape="http://www.inkscape.org/namespaces/inkscape"
   xmlns:sodipodi="http://sodipodi.sourceforge.net/DTD/sodipodi-0.dtd"
   xmlns="http://www.w3.org/2000/svg"
   xmlns:svg="http://www.w3.org/2000/svg">
  <defs
     id="defs15" />
  <sodipodi:namedview
     id="namedview13"
     pagecolor="#505050"
     bordercolor="#eeeeee"
     borderopacity="1"
     inkscape:showpageshadow="0"
     inkscape:pageopacity="0"
     inkscape:pagecheckerboard="0"
     inkscape:deskcolor="#505050"
     showgrid="false" />
  <g
     id="Vector"
     transform="translate(-19.124451,-28.199342)">
    <path
       style="fill:#7e2553;fill-opacity:1;stroke-width:0.0524142"
       d="m 25.544732,43.5232 c -2.114553,-1.241318 -3.827766,-2.80733 -4.728812,-4.322501 -1.212229,-2.03845 -1.690068,-4.333669 -1.691463,-8.124685 -4.05e-4,-1.401402 0.01869,-1.510771 0.308433,-1.754557 0.265041,-0.223016 0.444236,-0.227857 1.438846,-0.03889 1.559515,0.296333 2.518936,0.264396 3.428826,-0.114126 0.209368,-0.0871 0.669305,-0.346476 1.022078,-0.576386 0.5343,-0.348219 0.666612,-0.412993 0.792354,-0.387889 0.08303,0.01658 0.389645,0.179957 0.681388,0.363069 0.66059,0.414627 0.906963,0.540784 1.351114,0.69185 0.853624,0.29034 1.707495,0.29731 3.070802,0.02506 0.627461,-0.125301 0.844346,-0.149383 1.010034,-0.112155 0.279076,0.06271 0.448486,0.179195 0.561581,0.386158 0.08412,0.153949 0.09186,0.331282 0.08259,1.893973 -0.01127,1.901884 -0.07482,2.671815 -0.331392,4.015236 -0.468152,2.451341 -1.418466,4.28737 -3.000729,5.797476 -1.103119,1.05281 -3.128204,2.538575 -3.456311,2.535822 -0.03718,-3.13e-4 -0.279883,-0.12518 -0.539336,-0.277486 z m 0.948744,-1.881038 c 2.424514,-1.824869 3.399749,-3.041335 4.086935,-5.097849 0.384455,-1.150537 0.57774,-2.521674 0.635097,-4.505293 l 0.03321,-1.148348 -0.126449,0.03422 c -0.800983,0.216686 -2.086228,0.285259 -2.747159,0.146569 -0.651369,-0.136683 -1.456922,-0.455444 -1.850942,-0.732419 -0.07744,-0.05444 -0.218394,-0.138617 -0.31323,-0.187065 l -0.172431,-0.08809 -0.386515,0.240902 c -0.478784,0.298413 -1.239295,0.612917 -1.788172,0.739483 -0.705843,0.162764 -2.036872,0.109158 -2.944216,-0.11857 l -0.118351,-0.02972 4.06e-4,0.988446 c 0.0016,3.092959 0.586202,5.444172 1.740409,7.000849 0.40953,0.552336 1.053556,1.217622 1.637358,1.691406 0.51982,0.421861 1.802729,1.324092 1.89461,1.33242 0.03175,0.0028 0.220429,-0.117247 0.419314,-0.266947 z"
       id="path1243" />
  </g>
</svg>
