<?xml version="1.0" encoding="UTF-8" standalone="no"?>
<svg
   width="14.870924"
   height="15.668978"
   viewBox="0 0 14.870924 15.668978"
   fill="none"
   version="1.1"
   id="svg11"
   sodipodi:docname="card.svg"
   inkscape:export-filename="..\RiderProjects\2023-p3a-web-gamebook-kelbasa-matejka\Game\wwwroot\Assets\shield.svg"
   inkscape:export-xdpi="96"
   inkscape:export-ydpi="96"
   xmlns:inkscape="http://www.inkscape.org/namespaces/inkscape"
   xmlns:sodipodi="http://sodipodi.sourceforge.net/DTD/sodipodi-0.dtd"
   xmlns="http://www.w3.org/2000/svg"
   xmlns:svg="http://www.w3.org/2000/svg">
  <defs
     id="defs15" />
  <sodipodi:namedview
     id="namedview13"
     pagecolor="#505050"
     bordercolor="#eeeeee"
     borderopacity="1"
     inkscape:showpageshadow="0"
     inkscape:pageopacity="0"
     inkscape:pagecheckerboard="0"
     inkscape:deskcolor="#505050"
     showgrid="false" />
  <g
     id="Vector"
     transform="translate(-18.564538,-28.165512)">
    <path
       style="fill:#1d2b53;fill-opacity:1;stroke-width:0.0482706"
       d="m 20.025113,43.76681 c -0.688012,-0.185266 -1.136887,-0.606286 -1.365748,-1.280996 -0.152885,-0.450737 -0.118134,-1.069186 0.08424,-1.499217 0.187696,-0.398824 0.532949,-0.777223 0.849327,-0.93086 0.353691,-0.171758 0.872408,-0.252192 1.237245,-0.191855 l 0.289957,0.04797 0.580798,-0.582194 c 0.31944,-0.320209 0.578798,-0.603603 0.576352,-0.629768 -0.0024,-0.02619 -0.384068,-0.405984 -0.848045,-0.844041 -1.210482,-1.142841 -1.400052,-1.469161 -1.357072,-2.336032 0.01677,-0.337776 0.05096,-0.503818 0.147676,-0.717231 0.164359,-0.362593 0.556148,-0.772903 0.897994,-0.940455 0.249692,-0.122376 0.3162,-0.132776 0.850133,-0.132914 0.543486,-1.43e-4 0.596324,0.0085 0.855861,0.139788 0.152139,0.07697 0.375166,0.234369 0.49562,0.349788 0.120455,0.115412 0.235408,0.209845 0.255451,0.209845 0.02005,0 1.299091,-1.287438 2.842332,-2.860979 l 2.805892,-2.860979 0.86159,-0.157718 c 1.407976,-0.25773 2.440709,-0.405292 2.665185,-0.380816 0.227484,0.02482 0.401414,0.131189 0.558685,0.341727 0.09578,0.128229 0.100035,0.201557 0.113216,1.952041 l 0.01366,1.818812 -3.018542,3.016316 c -1.660199,1.658975 -3.018542,3.030786 -3.018542,3.048466 0,0.01766 0.09477,0.08768 0.210603,0.155564 0.281974,0.165254 0.496521,0.418801 0.67745,0.800613 0.13928,0.293908 0.14977,0.353231 0.14977,0.847019 0,0.472355 -0.0139,0.560289 -0.125992,0.796467 -0.3046,0.641863 -0.922512,1.058976 -1.629391,1.099897 -0.448236,0.02596 -0.827924,-0.06757 -1.189127,-0.292893 -0.132746,-0.0828 -0.635836,-0.539435 -1.117989,-1.014737 l -0.876638,-0.86418 -0.578972,0.584205 -0.578972,0.584211 0.07604,0.277576 c 0.04183,0.152664 0.07506,0.444483 0.07387,0.648474 -0.0018,0.310019 -0.02637,0.422716 -0.149878,0.686568 -0.42157,0.900874 -1.383201,1.363194 -2.314073,1.112532 z m 0.915543,-1.56263 c 0.273924,-0.306581 0.09601,-0.842728 -0.311785,-0.939595 -0.154358,-0.03664 -0.407912,0.05788 -0.53345,0.198902 -0.118849,0.133516 -0.156495,0.413043 -0.08038,0.596806 0.149007,0.359729 0.661561,0.439406 0.92561,0.143887 z m 5.882229,-1.786286 c 0.176776,-0.176782 0.188406,-0.406676 0.03085,-0.609785 -0.11765,-0.151661 -1.227399,-1.267938 -3.351252,-3.370973 l -1.310876,-1.298023 -0.208354,0.02793 c -0.276108,0.03705 -0.473846,0.248243 -0.473846,0.506152 0,0.173393 0.05597,0.235807 1.315375,1.467042 0.723455,0.707273 1.794162,1.765832 2.379346,2.352352 1.055837,1.058242 1.065551,1.066399 1.27082,1.066399 0.164258,0 0.235891,-0.02906 0.347944,-0.141101 z m 5.160994,-9.742312 c 1.43e-4,-0.61673 -0.01677,-0.929207 -0.05042,-0.929207 -0.02786,0 -0.482945,0.08688 -1.011288,0.193084 -0.528342,0.106194 -0.968815,0.193078 -0.978834,0.193078 -0.01002,0 -1.220716,1.218502 -2.690432,2.707784 l -2.672209,2.707784 0.882003,0.852174 0.882003,0.852174 2.819467,-2.823829 2.81946,-2.823829 2.45e-4,-0.929213 z"
       id="path1190" />
  </g>
</svg>
